<svg id="Layer_1" enable-background="new 0 0 256 256" height="512" viewBox="0 0 256 256" width="512" xmlns="http://www.w3.org/2000/svg"><g><path d="m125.654 126.751h-84.921c-13.794 0-24.977 11.229-24.977 25.081v20.3 11.175h22.208v49.101h90.459c0-22.642 0-38.922 0-49.101h22.208v-11.175-20.3c-.001-13.852-11.183-25.081-24.977-25.081z" fill="#4671c6"/><path d="m57.718 104.932v23.825.003c0 13.837 11.171 25.054 24.951 25.054 13.773 0 24.95-11.209 24.95-25.057 0-4.82 0-18.844 0-23.825z" fill="#f9cfcf"/><path d="m15.756 183.306v45.868c0 1.785 1.447 3.232 3.232 3.232h18.976v-49.101h-22.208z" fill="#f9cfcf"/><path d="m150.63 183.306h-22.208v49.101h17.898c2.38 0 4.31-1.929 4.31-4.31z" fill="#f9cfcf"/><path d="m125.654 124.751h-16.035v-19.819c0-1.104-.896-2-2-2h-49.901c-1.104 0-2 .896-2 2v19.819h-14.986c-14.875 0-26.977 12.148-26.977 27.081v77.343c0 2.885 2.347 5.232 5.232 5.232h127.332c3.479 0 6.31-2.831 6.31-6.31 0-16.093 0-60.585 0-76.266.001-14.931-12.101-27.08-26.975-27.08zm-89.69 105.656h-16.976c-.68 0-1.232-.553-1.232-1.232v-43.868h18.208zm2-65.871c-1.104 0-2 .896-2 2v14.771h-18.208v-29.475c0-12.727 10.307-23.081 22.977-23.081h16.985c1.104 0 2-.896 2-2v-19.819h45.901v19.819c0 1.104.896 2 2 2h18.035c12.669 0 22.976 10.354 22.976 23.081v29.475h-18.208v-14.771c0-1.104-.895-2-2-2-1.104 0-2 .896-2 2v63.871h-86.458c0-6.827 0-56.829 0-63.871 0-1.105-.896-2-2-2zm110.666 63.561c0 1.273-1.036 2.31-2.31 2.31h-15.897v-45.101h18.207z" fill="#3762cc"/><path d="m83.193 120.691c-30.376 0-55.001-24.625-55.001-55.001v-23.037c0-7.635 6.19-13.825 13.825-13.825h96.177v36.862c0 30.376-24.625 55.001-55.001 55.001z" fill="#4671c6"/><path d="m130.038 69.408v-4.386c0-25.639-20.973-46.423-46.845-46.423-25.872 0-46.845 20.784-46.845 46.423v4.386c-8.134-.165-14.588 6.315-14.588 14.148 0 8.364 7.302 14.98 15.825 14.079 4.834 20.539 23.413 35.841 45.607 35.841 22.196 0 40.773-15.304 45.607-35.841 8.512.9 15.825-5.703 15.825-14.079.002-7.837-6.457-14.313-14.586-14.148z" fill="#f9cfcf"/><path d="m138.194 60.404h-73.494c-15.658 0-28.352-12.693-28.352-28.352 0-15.658 12.694-28.352 28.352-28.352h48.106c14.021 0 25.388 11.367 25.388 25.388z" fill="#4671c6"/><ellipse cx="83.193" cy="112.701" fill="#f9a7a7" rx="17.966" ry="13.788"/><g><path d="m51.747 92.59c-.704 0-1.386-.372-1.751-1.031-.535-.966-.186-2.184.78-2.719l10.961-6.072-10.961-6.072c-.966-.535-1.315-1.752-.78-2.719.536-.966 1.752-1.316 2.719-.78l14.12 7.821c.636.353 1.031 1.022 1.031 1.75s-.395 1.397-1.031 1.75l-14.12 7.821c-.308.17-.641.251-.968.251z" fill="#3762cc"/></g><g><path d="m114.595 92.59c-.328 0-.66-.081-.967-.251l-14.12-7.821c-.636-.353-1.031-1.022-1.031-1.75s.395-1.397 1.031-1.75l14.12-7.821c.967-.535 2.184-.186 2.719.78s.186 2.184-.78 2.719l-10.962 6.072 10.962 6.072c.966.535 1.315 1.752.78 2.719-.366.659-1.049 1.031-1.752 1.031z" fill="#3762cc"/></g><path d="m141.779 72.052c-.569-.558-1.179-1.059-1.812-1.521.138-1.624.227-3.248.227-4.841v-5.286-31.315c0-15.102-12.286-27.388-27.388-27.388h-48.106c-15.609 0-28.498 11.845-30.164 27.017-5.105 2.742-8.344 8.087-8.344 13.935v23.037c0 1.589.089 3.213.227 4.841-.633.462-1.242.963-1.812 1.521-3.125 3.062-4.846 7.148-4.846 11.504 0 4.551 1.95 8.915 5.349 11.974 3.002 2.702 6.913 4.182 10.941 4.185 5.74 21.139 24.89 35.76 47.143 35.76 22.252 0 41.402-14.622 47.144-35.76 4.027-.003 7.938-1.484 10.94-4.186 3.398-3.058 5.348-7.422 5.348-11.973-.001-4.356-1.722-8.441-4.847-11.504zm-9.741-4.562c0-2.343.017-3.451-.072-5.086h4.229c0 3.486.018 4.326-.074 6.042-1.261-.473-2.871-.834-4.083-.956zm-67.338-61.79h48.106c12.896 0 23.388 10.492 23.388 23.388v29.315h-6.389-65.105c-15.114 0-27.388-12.854-26.275-28.247 0-.001 0-.003 0-.004.977-13.645 12.384-24.452 26.275-24.452zm-34.508 59.99v-23.037c0-3.529 1.579-6.814 4.197-9.027.229 4.464 1.5 8.983 3.649 12.927-3.138 7.521-3.69 13.712-3.69 20.937-1.138.115-2.766.462-4.083.955-.048-.927-.073-1.847-.073-2.755zm108.41 26.865c-2.593 2.335-6.087 3.464-9.591 3.091-.995-.11-1.926.55-2.157 1.53-4.754 20.195-22.708 34.299-43.661 34.299s-38.907-14.104-43.661-34.298c-.214-.912-1.027-1.542-1.945-1.542-.07 0-.141.003-.212.011-3.502.37-6.997-.756-9.59-3.09-2.558-2.301-4.024-5.582-4.024-9 0-3.272 1.295-6.343 3.646-8.647 1.902-1.864 4.524-3.133 7.321-3.424 1.601-.173 2.237.118 3.021-.648.384-.376.6-.891.6-1.429 0-5.452-.291-10.901 2.407-18.717 5.536 7.083 13.729 11.19 22.254 11.663.56.031 1.123.05 1.69.05h63.25c.004.062.01.123.014.185.046.817.073 1.631.073 2.433v4.386c0 1.125.937 2.036 2.041 2 6.954-.091 12.546 5.341 12.546 12.148.001 3.419-1.466 6.699-4.022 8.999z" fill="#3762cc"/><g><g><path d="m194.25 66.707c-21.622 0-39.75 14.924-44.669 35.031l-15.672 8.826c-1.666.938-1.666 3.337 0 4.275l15.672 8.826c4.919 20.107 23.046 35.031 44.669 35.031 25.402 0 45.994-20.592 45.994-45.994s-20.592-45.995-45.994-45.995z" fill="#e0ebfc"/></g><g><path d="m194.25 160.695c-21.887 0-40.841-14.639-46.396-35.708l-14.927-8.406c-1.42-.8-2.268-2.25-2.268-3.879 0-1.63.848-3.081 2.267-3.88l14.928-8.406c5.555-21.069 24.509-35.708 46.396-35.708 26.464 0 47.994 21.53 47.994 47.994s-21.53 47.993-47.994 47.993zm0-91.988c-20.331 0-37.899 13.778-42.726 33.506-.131.538-.479.996-.961 1.268l-15.673 8.826c-.19.107-.23.274-.23.395s.04.288.23.395l15.673 8.826c.481.271.83.73.961 1.268 4.825 19.728 22.395 33.506 42.726 33.506 24.259 0 43.994-19.735 43.994-43.994s-19.735-43.996-43.994-43.996zm-44.668 33.031h.01z" fill="#3762cc"/></g></g><g><path d="m222.64 132.106-.133-.05c-4.542-1.705-9.67.069-12.191 4.216-2.851 4.689-7.296 8.204-12.517 9.896-1.774.576-3.679.451-5.363-.35-2.208-1.05-3.73-3.123-4.073-5.544l-.705-4.979c1.332-.177 2.646-.618 3.855-1.367.952 3.403 1.009 4.79 2.558 4.79.143 0 .289-.019.433-.06.854-.239 1.353-1.125 1.114-1.979l-1.447-5.174c.644-.854 1.15-1.821 1.489-2.872h5.07c.887 0 1.606-.719 1.606-1.606s-.719-1.606-1.606-1.606h-4.409c.299-1.735.567-3.474.791-5.219h3.618c.887 0 1.606-.719 1.606-1.606s-.719-1.606-1.606-1.606h-3.255c.177-1.737.326-3.476.428-5.219h2.827c.887 0 1.606-.719 1.606-1.606s-.719-1.606-1.606-1.606h-2.689c.056-1.739.088-3.478.07-5.219h2.619c.887 0 1.606-.719 1.606-1.606s-.719-1.606-1.606-1.606h-2.705c-.061-1.653-.143-3.305-.271-4.956l-.02-.263h2.996c.887 0 1.606-.719 1.606-1.606s-.719-1.606-1.606-1.606h-3.399c-.545-2.196-1.775-4.103-3.444-5.501l1.167-4.17c.239-.854-.26-1.74-1.114-1.979-.855-.239-1.74.26-1.979 1.114l-.929 3.319c-.864-.343-1.783-.571-2.739-.674l-.2-5.387c-.033-.886-.768-1.577-1.664-1.545-.886.033-1.578.778-1.545 1.664l.201 5.413c-1.378.276-2.652.824-3.774 1.58l-1.223-4.371c-.239-.854-1.126-1.353-1.979-1.114-.854.239-1.353 1.125-1.114 1.979l1.689 6.038c-.786 1.078-1.375 2.305-1.705 3.634h-3.547c-.887 0-1.606.719-1.606 1.606s.719 1.606 1.606 1.606h3.258l.24 3.866c.028.451.039.902.063 1.352h-3.561c-.887 0-1.606.719-1.606 1.606s.719 1.606 1.606 1.606h3.711c.062 1.739.097 3.479.107 5.219h-3.817c-.887 0-1.606.719-1.606 1.606s.719 1.606 1.606 1.606h3.799c-.022 1.74-.07 3.479-.144 5.219h-3.655c-.887 0-1.606.719-1.606 1.606s.719 1.606 1.606 1.606h3.505c-.003.053-.004.105-.007.158l-.29 4.67c-.008.132-.001.26-.004.391h-3.204c-.887 0-1.606.719-1.606 1.606s.719 1.606 1.606 1.606h3.67c.245.756.568 1.478.98 2.142l-1.652 5.904c-.239.854.26 1.74 1.114 1.979.145.041.29.06.433.06.702 0 1.347-.464 1.546-1.174l1.123-4.015c.897.653 1.89 1.119 2.925 1.431l.832 5.874c.531 3.754 2.893 6.968 6.316 8.596 1.53.728 3.178 1.095 4.834 1.095 1.169 0 2.342-.183 3.48-.552 6.133-1.988 11.354-6.116 14.701-11.625 1.523-2.506 4.622-3.577 7.369-2.548l.133.05c1.034.389 2.187-.135 2.575-1.17.386-1.032-.138-2.185-1.172-2.573z" fill="#3762cc"/><g><path d="m186.379 129.777c-1.155 0-2.226-.463-3.016-1.305-.791-.841-1.187-1.939-1.115-3.092l.29-4.67c.46-7.392.46-14.887 0-22.279l-.242-3.893c-.084-1.356.382-2.648 1.313-3.638.93-.99 2.191-1.535 3.549-1.535 2.528 0 4.661 1.975 4.856 4.495l.135 1.749c.795 10.294.223 20.656-1.703 30.8-.371 1.952-2.081 3.368-4.067 3.368z" fill="#a4c9ff"/></g></g><path d="m124.851 222.987-24.373-.127c-.66-.003-1.195-.535-1.203-1.195l-.005-.42v-.012c-.009-.65.482-1.199 1.129-1.263l19.753-1.972c1.976-.197 3.417-1.962 3.214-3.937l-.004-.038c-.202-1.974-1.964-3.412-3.938-3.215l-6.964.695-19.534 1.383-2.294-.979 8.996-9.547c1.545-1.64 1.737-4.488.251-6.182-1.777-2.027-4.863-2.044-6.667-.13l-4.663 4.948c-7.32 7.769-16.128 11.349-18.42 13.809-.261.28-.555.519-.864.734l-51.998-.79c-.832-.013-1.513.658-1.513 1.49v17.381c0 3.881 3.207 6.999 7.087 6.896 47.467-1.255 40.313-1.069 46.271-1.212 2.565-.062 3.014 1.411 6.012 2.172 13.173 3.346 12.359 3.242 31.815 10.607 1.923.728 4.099-.434 4.482-2.565.288-1.603-.726-3.163-2.249-3.739l-12.757-4.829c-.557-.211-.81-.857-.543-1.39.203-.406.652-.626 1.096-.537l23.265 4.648c1.855.371 3.942-.773 4.409-2.606.515-2.022-.772-4.037-2.793-4.441l-21.657-4.327c-.553-.11-.937-.616-.894-1.178.044-.584.533-1.035 1.118-1.032l24.395.128c1.985.01 3.602-1.592 3.609-3.577v-.047c.01-1.981-1.588-3.594-3.569-3.604z" fill="#f9cfcf"/><g><path d="m106.233 253.952-5.733-2.175c-13.718-5.211-14.253-5.415-25.866-8.364-3.219-.817-3.72-2.166-5.472-2.111-5.253.125-.273-.005-46.266 1.212-2.4.06-4.713-.832-6.45-2.524-1.734-1.689-2.69-3.952-2.69-6.372v-17.381c0-.942.37-1.825 1.041-2.486s1.572-1.01 2.501-1.004l51.285.78c1.175-1.136 1.512-1.429 5.167-3.681 9.86-6.077 11.279-8.029 18.009-15.17 2.65-2.814 7.109-2.687 9.625.182 2.143 2.444 2.009 6.424-.299 8.873l-6.636 7.042c21.439-1.517 16.077-1.085 24.777-1.955 3.073-.303 5.814 1.938 6.127 5.001.156 1.525-.281 2.983-1.227 4.142s-2.287 1.878-3.775 2.027l-9.283.926 13.793.072c3.078.016 5.572 2.533 5.561 5.61-.005 1.542-.593 2.944-1.654 3.996-1.055 1.045-2.451 1.62-3.935 1.62-.01 0-.02 0-.03 0l-15.214-.08 12.655 2.528c1.502.3 2.833 1.216 3.65 2.513.829 1.315 1.073 2.872.688 4.383-.713 2.795-3.799 4.661-6.739 4.073l-11.451-2.288 1.489.563c2.486.941 3.962 3.449 3.51 5.964-.285 1.586-1.244 2.947-2.631 3.732-1.391.792-3.044.914-4.527.352zm-36.966-16.651c3.067 0 3.806 1.59 6.352 2.235 11.835 3.006 12.652 3.317 26.302 8.502l5.729 2.173c1.598.609 2.741-1.835.816-2.563l-12.756-4.829c-1.664-.631-2.42-2.564-1.625-4.155.603-1.208 1.952-1.868 3.277-1.604l23.266 4.648c1.319.259 2.738-1.038 1.882-2.401-.239-.378-.611-.635-1.049-.722l-21.658-4.327c-1.542-.31-2.615-1.724-2.496-3.291.122-1.618 1.485-2.881 3.107-2.881h.016l24.395.127c.812.029 1.595-.66 1.599-1.584.003-.922-.706-1.638-1.582-1.643l-24.373-.127c-1.74-.009-3.172-1.432-3.192-3.171l-.005-.418c-.021-1.712 1.238-3.122 2.931-3.291l19.752-1.972c.874-.087 1.513-.866 1.423-1.743-.093-.913-.872-1.553-1.753-1.467-8.944.893-3.543.453-26.555 2.083-.721.049-1.106-.232-3.221-1.135-1.278-.545-1.624-2.199-.67-3.211l8.997-9.547c.87-.922.968-2.62.203-3.492-.926-1.057-2.623-1.226-3.707-.077-6.813 7.23-8.446 9.439-18.821 15.833-1.937 1.193-3.609 2.224-4.254 2.916-.657.706-1.437 1.356-2.358 1.371l-51.48-.783v16.864c0 1.331.526 2.576 1.481 3.506.957.932 2.21 1.436 3.554 1.391 45.582-1.206 41.055-1.088 46.275-1.212.065-.002.132-.003.198-.003z" fill="#3762cc"/></g><path d="m93.558 116.142h-20.73c-1.784 0-3.231 1.446-3.231 3.231v54.476 11.64 12.016c0 2.074 1.517 3.926 3.581 4.123 2.368.226 4.361-1.631 4.361-3.952v-11.356c0-.459.372-.83.83-.83.459 0 .83.372.83.83v18.454c0 2.074 1.516 3.926 3.581 4.123 2.368.226 4.361-1.631 4.361-3.952v-9.311c0-.471.382-.852.852-.852.471 0 .852.382.852.852v1.598c0 2.074 1.516 3.926 3.581 4.123 2.368.226 4.361-1.63 4.361-3.952v-11.913-11.913-54.203c.002-1.785-1.445-3.232-3.229-3.232z" fill="#6bdddd"/><g fill="#ffea92"><circle cx="88.851" cy="144.329" r="3.71"/><circle cx="78.461" cy="158.886" r="3.71"/><circle cx="87.551" cy="175.135" r="3.71"/><circle cx="80.131" cy="128.932" r="3.71"/></g></g></svg>