<svg id="Layer_1" enable-background="new 0 0 256 256" height="512" viewBox="0 0 256 256" width="512" xmlns="http://www.w3.org/2000/svg"><g><path d="m107.675 138.237h-16.7c0-13.029 0-21.854 0-36.665h-47.53v36.665h-16.655c-13.139 0-23.79 10.651-23.79 23.79v52.085h128.465c0-7.409 0-44.595 0-52.085 0-13.14-10.651-23.79-23.79-23.79z" fill="#f9cfcf"/><path d="m107.676 136.236h-14.701v-34.665c0-1.104-.896-2-2-2h-47.53c-1.104 0-2 .896-2 2v34.665h-14.655c-14.221 0-25.79 11.569-25.79 25.79v52.084c0 1.104.896 2 2 2h128.465c1.104 0 2-.896 2-2v-52.084c0-14.22-11.569-25.79-25.789-25.79zm21.789 75.875h-15.983v-33.747c0-1.104-.896-2-2-2s-2 .896-2 2v33.747h-84.499v-33.747c0-1.104-.896-2-2-2s-2 .896-2 2v33.747h-15.983v-50.084c0-12.015 9.775-21.79 21.79-21.79h16.654c1.104 0 2-.896 2-2v-34.665h43.53v34.665c0 1.104.896 2 2 2h16.701c12.015 0 21.789 9.775 21.789 21.79v50.084z" fill="#3762cc"/><path d="m67.233 121.537c-30.778 0-55.728-24.95-55.728-55.728v-23.342c0-7.736 6.272-14.008 14.008-14.008h97.449v37.35c-.001 30.778-24.951 55.728-55.729 55.728z" fill="#4671c6"/><path d="m114.697 69.576v-4.444c0-25.978-21.25-47.036-47.464-47.036-26.214 0-47.464 21.059-47.464 47.036v4.444c-8.242-.167-14.781 6.398-14.781 14.335 0 8.475 7.398 15.178 16.034 14.265 4.898 20.81 23.722 36.315 46.21 36.315 22.49 0 41.312-15.506 46.21-36.315 8.624.912 16.034-5.779 16.034-14.265.001-7.94-6.543-14.502-14.779-14.335z" fill="#f9cfcf"/><path d="m91.874 93.685c-3.313 0-5.999-2.686-5.999-5.999v-6.399c0-3.313 2.686-5.999 5.999-5.999 3.313 0 5.999 2.686 5.999 5.999v6.399c0 3.314-2.685 5.999-5.999 5.999z" fill="#3762cc"/><path d="m42.579 93.685c-3.313 0-5.999-2.686-5.999-5.999v-6.399c0-3.313 2.686-5.999 5.999-5.999 3.313 0 5.999 2.686 5.999 5.999v6.399c0 3.314-2.686 5.999-5.999 5.999z" fill="#3762cc"/><path d="m122.961 60.453h-74.466c-15.865 0-28.726-12.861-28.726-28.726 0-15.866 12.861-28.727 28.726-28.727h48.742c14.207 0 25.724 11.517 25.724 25.724z" fill="#4671c6"/><path d="m76.093 104.814c-1.229 1.239-2.902 2.205-4.839 2.794-1.165.354-2.482.527-4.027.527s-2.862-.172-4.027-.527c-1.937-.589-3.61-1.555-4.839-2.794-.778-.783-2.044-.789-2.828-.011s-.789 2.044-.012 2.829c1.694 1.707 3.946 3.022 6.515 3.804 1.548.471 3.246.7 5.191.7s3.644-.229 5.191-.7c2.568-.781 4.82-2.097 6.515-3.804.777-.784.772-2.05-.012-2.829s-2.05-.772-2.828.011z" fill="#3762cc"/><path d="m126.576 72.275c-.58-.568-1.201-1.078-1.846-1.548.141-1.653.231-3.303.231-4.917v-5.356-31.73c0-15.287-12.437-27.724-27.724-27.724h-48.742c-15.806 0-28.858 11.998-30.539 27.363-5.172 2.772-8.452 8.183-8.452 14.104v23.342c0 1.615.09 3.265.231 4.918-.644.47-1.265.979-1.844 1.547-3.161 3.098-4.902 7.23-4.902 11.637 0 4.604 1.973 9.019 5.411 12.113 3.04 2.736 7.002 4.234 11.081 4.234h.006c5.807 21.417 25.204 36.233 47.746 36.233s41.939-14.816 47.747-36.233h.006c4.079 0 8.042-1.498 11.083-4.235 3.438-3.094 5.409-7.508 5.409-12.111 0-4.407-1.742-8.539-4.902-11.637zm-9.88-4.618v-2.525c0-.847-.026-1.703-.071-2.561-.002-.039-.001-.078-.003-.118h4.339v3.356c0 .933-.025 1.879-.077 2.831-1.31-.494-2.929-.858-4.188-.983zm-68.201-62.657h48.742c13.081 0 23.724 10.643 23.724 23.724v29.729h-6.499-65.967c-15.304 0-27.77-13.005-26.649-28.649 0-.001 0-.002 0-.003.991-13.841 12.56-24.801 26.649-24.801zm-34.991 60.809v-23.342c0-3.602 1.62-6.954 4.304-9.201.233 4.698 1.596 9.286 3.702 13.152-2.459 5.888-3.741 12.245-3.741 18.713v2.525c-.904.09-2.119.326-3.168.645-.343.104-.684.213-1.019.339-.053-.952-.078-1.898-.078-2.831zm109.889 27.24c-2.634 2.37-6.178 3.514-9.739 3.139-1.003-.115-1.927.55-2.157 1.53-4.819 20.474-23.021 34.773-44.264 34.773s-39.445-14.299-44.263-34.773c-.215-.912-1.028-1.542-1.945-1.542-.07 0-.142.003-.212.011-3.554.372-7.105-.768-9.737-3.137-2.598-2.337-4.087-5.668-4.087-9.14 0-3.323 1.314-6.441 3.701-8.78.655-.642 1.375-1.195 2.138-1.671.014-.008.031-.011.045-.02 2.124-1.311 4.556-1.92 6.856-1.865h.04c1.096 0 2-.89 2-2 0-5.616-.292-11.087 2.456-19.018.019.024.038.048.039.051.008.01.018.017.026.027 2.96 3.773 6.497 6.545 10.589 8.636.024.012.049.015.073.026 1.161.573 2.433 1.105 3.745 1.55l.002-.006c.002.001.004.001.006.002l-.002.006c3.132 1.039 6.346 1.603 9.792 1.603h64.112c.055.933.09 1.688.09 2.679v4.444c0 1.077.907 2.045 2.04 2 2.493 0 4.695.531 6.856 1.865.018.011.04.015.058.026.758.474 1.473 1.026 2.125 1.665 2.387 2.339 3.701 5.457 3.701 8.779.001 3.473-1.489 6.804-4.084 9.14z" fill="#3762cc"/><g><g><path d="m67.232 173.5c-1.657 0-3-1.343-3-3v-7c0-1.657 1.343-3 3-3s3 1.343 3 3v7c0 1.657-1.342 3-3 3z" fill="#4671c6"/></g><g><path d="m67.232 208.244c-1.657 0-3-1.343-3-3v-17.372c0-1.657 1.343-3 3-3s3 1.343 3 3v17.372c0 1.657-1.342 3-3 3z" fill="#4671c6"/></g><g><path d="m74.232 232.616h-7c-1.657 0-3-1.343-3-3v-7c0-1.657 1.343-3 3-3s3 1.343 3 3v4h4c1.657 0 3 1.343 3 3s-1.342 3-3 3z" fill="#4671c6"/></g><g><path d="m177.948 232.616h-12.965c-1.657 0-3-1.343-3-3s1.343-3 3-3h12.965c1.657 0 3 1.343 3 3s-1.343 3-3 3zm-25.928 0h-12.965c-1.657 0-3-1.343-3-3s1.343-3 3-3h12.965c1.657 0 3 1.343 3 3s-1.343 3-3 3zm-25.929 0h-12.965c-1.657 0-3-1.343-3-3s1.343-3 3-3h12.965c1.657 0 3 1.343 3 3s-1.343 3-3 3zm-25.929 0h-12.965c-1.657 0-3-1.343-3-3s1.343-3 3-3h12.965c1.657 0 3 1.343 3 3s-1.343 3-3 3z" fill="#4671c6"/></g><g><path d="m197.912 232.616h-7c-1.657 0-3-1.343-3-3s1.343-3 3-3h7c1.657 0 3 1.343 3 3s-1.343 3-3 3z" fill="#4671c6"/></g></g><path d="m240.823 144.898c-2.748 0-4.975-2.227-4.975-4.975v-8.606c0-1.832-1.485-3.317-3.317-3.317h-69.237c-1.832 0-3.317 1.485-3.317 3.317v8.606c0 2.748-2.227 4.975-4.975 4.975h-8.776c-1.832 0-3.317 1.485-3.317 3.317v39.302c0 13.291 4.131 26.254 11.822 37.095 7.08 9.98 16.869 17.726 28.21 22.322l14.971 6.066 14.971-6.067c11.341-4.596 21.129-12.341 28.21-22.322 7.691-10.841 11.822-23.804 11.822-37.095v-39.302c0-1.832-1.485-3.317-3.317-3.317h-8.775z" fill="#4671c6"/><path d="m187.301 236.633c-9.303-3.77-17.292-10.092-23.101-18.28-6.333-8.927-9.681-19.431-9.681-30.378v-31.01c10.216 0 17.067-7.72 17.067-16.898h52.653c0 9.192 6.872 16.898 17.067 16.898v31.01c0 10.947-3.348 21.451-9.681 30.378-5.809 8.188-13.798 14.51-23.102 18.28l-10.611 4.3z" fill="#e0ebfc"/><path d="m224.757 180.068h-17.413v-17.413c0-1.832-1.485-3.317-3.317-3.317h-12.231c-1.832 0-3.317 1.485-3.317 3.317v17.413h-17.413c-1.832 0-3.317 1.485-3.317 3.317v12.23c0 1.832 1.485 3.317 3.317 3.317h17.413v17.413c0 1.832 1.485 3.317 3.317 3.317h12.231c1.832 0 3.317-1.485 3.317-3.317v-17.413h17.413c1.832 0 3.317-1.485 3.317-3.317v-12.23c0-1.832-1.485-3.317-3.317-3.317z" fill="#f9a7a7"/><g><path d="m197.161 254.854-14.971-6.067c-11.717-4.749-21.776-12.708-29.09-23.018-7.976-11.242-12.19-24.469-12.19-38.252v-39.301c0-2.932 2.385-5.317 5.316-5.317h8.775c1.641 0 2.976-1.334 2.976-2.975v-8.606c0-2.932 2.385-5.317 5.316-5.317h69.237c2.932 0 5.316 2.385 5.316 5.317v8.606c0 1.641 1.335 2.975 2.976 2.975h8.775c2.932 0 5.316 2.385 5.316 5.317v39.301c0 13.783-4.215 27.011-12.19 38.252-7.315 10.311-17.374 18.27-29.09 23.018l-14.972 6.067c-.478.195-1.019.195-1.5 0zm-50.934-107.956c-.726 0-1.316.591-1.316 1.317v39.301c0 12.949 3.96 25.376 11.452 35.938 6.872 9.687 16.322 17.164 27.33 21.625l14.22 5.762 14.221-5.762c11.006-4.46 20.457-11.938 27.33-21.625 7.492-10.562 11.452-22.989 11.452-35.938v-39.301c0-.726-.591-1.317-1.316-1.317h-8.775c-3.847 0-6.976-3.129-6.976-6.975v-8.606c0-.726-.591-1.317-1.316-1.317h-69.237c-.726 0-1.316.591-1.316 1.317v8.606c0 3.846-3.129 6.975-6.976 6.975z" fill="#3762cc"/></g><g><path d="m197.161 242.787-10.611-4.3c-9.659-3.915-17.952-10.477-23.981-18.977-6.575-9.267-10.05-20.172-10.05-31.535v-31.01c0-1.104.896-2 2-2 9.029 0 15.067-6.747 15.067-14.898 0-1.104.896-2 2-2h52.653c1.055 0 2 .737 2 2.314 0 7.557 5.886 14.583 15.067 14.583 1.104 0 2 .896 2 2v31.01c0 11.363-3.475 22.268-10.05 31.535-6.03 8.5-14.323 15.062-23.982 18.977l-10.611 4.3c-.48.196-1.021.196-1.502.001zm-9.109-8.008 9.86 3.996 9.86-3.996c8.95-3.627 16.634-9.708 22.223-17.584 6.092-8.587 9.312-18.691 9.312-29.221v-29.071c-8.984-.729-16.183-7.875-16.991-16.836h-48.806c-.809 8.961-8.007 16.108-16.991 16.836v29.071c0 10.529 3.22 20.634 9.312 29.221 5.587 7.876 13.271 13.957 22.221 17.584z" fill="#3762cc"/></g></g></svg>